<svg xmlns="http://www.w3.org/2000/svg" width="70" height="17" viewBox="0 0 70 17">
  <path fill="#00CDB9" fill-rule="evenodd" d="M34.1300264 8.5784027C34.1300264 11.3856018 32.1488113 13.7287589 29.0171705 13.7287589 26.0096859 13.7287589 23.8686528 11.3575553 23.8686528 8.51593551L23.8686528 8.45346832C23.8686528 5.61312336 25.8511887 3.26996625 28.9524508 3.26996625 31.9903141 3.26996625 34.1300264 5.64754406 34.1300264 8.51593551L34.1300264 8.5784027zM29.0171705 0C23.839595 0 20 3.85894263 20 8.51593551L20 8.5784027C20 13.2073491 23.8052539 17 28.9524508 17 34.1643675 17 38 13.1461567 38 8.51593551L38 8.45346832C38 3.79647544 34.1947461 0 29.0171705 0L29.0171705 0zM52.1489103 0C51.1455886 0 50.6426315.654640741 50.3600421 1.31186389L46.0304626 12.311636 41.7644009 1.37384171C41.4507008.59266292 40.9179292 0 39.8822004 0 38.847768 0 38 .874145526 38 1.81156008 38 2.15502051 38.1257393 2.46878323 38.2190715 2.74897463L43.7412298 15.3433845C44.1806692 16.3440681 44.8715871 17 45.9060196 17L46.0926841 17C47.1297091 17 47.8193308 16.3117879 48.2587702 15.3433845L53.7809285 2.71798572C53.8742607 2.53076105 54 2.15502051 54 1.81156008 54 .781178794 53.1846391 0 52.1489103 0M57.7704359 7.34508098C58.1172173 4.8159868 59.7537138 3.05556389 62.077279 3.05556389 64.5917688 3.05556389 66.0386395 4.93963707 66.2932056 7.34508098L57.7704359 7.34508098zM70 8.0245201C70 4.25637373 67.3932949 0 62.1123468 0 57.366507 0 54 3.8255099 54 8.48725255L54 8.54461608C54 13.5760348 57.7067944 17 62.5214709 17 65.0996022 17 66.9841708 16.1675915 68.4894878 14.8380324 68.7778229 14.5614127 68.9960224 14.1636923 68.9960224 13.6996851 68.9960224 12.8341332 68.333631 12.1891122 67.4855102 12.1891122 67.0478123 12.1891122 66.7932462 12.3089382 66.5101063 12.5281944 65.443786 13.389922 64.1865411 13.9444361 62.5799172 13.9444361 60.1290689 13.9444361 58.2146278 12.4670066 57.8042049 9.8129874L68.2063479 9.8129874C69.180453 9.8129874 70 9.07108578 70 8.0245201L70 8.0245201zM17 10.1412214C17 10.6374046 16.9199027 11.1348601 16.7403298 11.6005089 16.5646326 12.0661578 16.3269245 12.5750636 16.0104111 13.0814249 14.8102439 15.0101781 12.5274717 17 8.59753781 17 5.64556577 17 3.32920435 15.6819338 1.8654913 13.8396947.611064671 12.2608142 0 10.4414758 0 8.49872774 0 6.55725191.611064671 4.73918575 1.8654913 3.16030534 3.32920435 1.31679389 5.64556577 0 8.59753781 0 12.5274717 0 14.8102439 1.98982188 16.0104111 3.9173028 16.3269245 4.42493639 16.5646326 4.93384224 16.7403298 5.39821883 16.9199027 5.86513995 17 6.36259542 17 6.85877863L17 6.86386768C16.9987081 7.08651399 16.8139676 7.26717557 16.5891785 7.26717557L14.8167034 7.26717557C14.511817 7.26717557 14.2069306 7.21628499 13.9317577 7.09033079 13.500266 6.89185751 13.1863363 6.57379135 13.0313094 6.16157761 12.5171366 4.99745547 11.1864883 3.2697201 8.5678243 3.2697201 5.68561441 3.2697201 3.78136637 5.78498728 3.78136637 8.43765903L3.78136637 8.56234097C3.78136637 11.2150127 5.68561441 13.7302799 8.5678243 13.7302799 11.1864883 13.7302799 12.5171366 12.0025445 13.0313094 10.8371501 13.1863363 10.4236641 13.5015579 10.1043257 13.9356334 9.90712468 14.2120982 9.78117048 14.5169846 9.7302799 14.821871 9.7302799L16.5581731 9.7302799C16.7907136 9.7302799 16.9974162 9.90712468 17 10.1361323L17 10.1412214z"/>
</svg>
